# xmcd
#
# Track frame offsets: 
#        150
#        31925
#        58816
#        84830
#        112751
#        135583
#        159743
#        179233
#        201906
#        218424
#        239198
#
# Disc length: 3476 seconds
#
# Revision: 0
# Processed by: cddbd v1.5.2PL0 Copyright (c) Steve Scherf et al.
# Submitted via: ExactAudioCopyFreeDBPlugin 1.0
#
DISCID=990d920b
DTITLE=Hurricane Ruth - Born on the River
DYEAR=2014
DGENRE=Blues
TTITLE0=Born on the River
TTITLE1=Make love to Me
TTITLE2=Slow Burn
TTITLE3=The Walls
TTITLE4=Dance, Dance, Norma Jean
TTITLE5=Money Train
TTITLE6=Cold Day in Hell
TTITLE7=Big Helen
TTITLE8=Work It
TTITLE9=Whiskey Chute
TTITLE10=Real Good Woman
EXTD=
EXTT0=
EXTT1=
EXTT2=
EXTT3=
EXTT4=
EXTT5=
EXTT6=
EXTT7=
EXTT8=
EXTT9=
EXTT10=
PLAYORDER=
